REM MD5 845c61fb372c790161572ea458b4b5ff
FILE "Mortal Kombat 3 (Japan).bin" BINARY
  TRACK 01 MODE2/2352
    INDEX 01 00:00:00
  TRACK 02 AUDIO
    INDEX 00 04:12:03
    INDEX 01 04:14:03
  TRACK 03 AUDIO
    INDEX 00 04:19:03
    INDEX 01 04:21:03
  TRACK 04 AUDIO
    INDEX 00 05:19:14
    INDEX 01 05:21:14
  TRACK 05 AUDIO
    INDEX 00 06:27:61
    INDEX 01 06:29:61
  TRACK 06 AUDIO
    INDEX 00 07:46:62
    INDEX 01 07:48:62
  TRACK 07 AUDIO
    INDEX 00 07:53:62
    INDEX 01 07:55:62
  TRACK 08 AUDIO
    INDEX 00 09:42:69
    INDEX 01 09:44:69
  TRACK 09 AUDIO
    INDEX 00 10:59:43
    INDEX 01 11:01:43
  TRACK 10 AUDIO
    INDEX 00 11:12:39
    INDEX 01 11:14:39
  TRACK 11 AUDIO
    INDEX 00 11:19:39
    INDEX 01 11:21:39
  TRACK 12 AUDIO
    INDEX 00 11:26:39
    INDEX 01 11:28:39
  TRACK 13 AUDIO
    INDEX 00 11:43:05
    INDEX 01 11:45:05
  TRACK 14 AUDIO
    INDEX 00 11:50:05
    INDEX 01 11:52:05
  TRACK 15 AUDIO
    INDEX 00 11:57:05
    INDEX 01 11:59:05
  TRACK 16 AUDIO
    INDEX 00 12:04:05
    INDEX 01 12:06:05
  TRACK 17 AUDIO
    INDEX 00 12:11:05
    INDEX 01 12:13:05
  TRACK 18 AUDIO
    INDEX 00 14:00:11
    INDEX 01 14:02:11
  TRACK 19 AUDIO
    INDEX 00 16:07:31
    INDEX 01 16:09:31
  TRACK 20 AUDIO
    INDEX 00 18:34:54
    INDEX 01 18:36:54
  TRACK 21 AUDIO
    INDEX 00 20:28:31
    INDEX 01 20:30:31
  TRACK 22 AUDIO
    INDEX 00 22:33:32
    INDEX 01 22:35:32
  TRACK 23 AUDIO
    INDEX 00 24:18:08
    INDEX 01 24:20:08
  TRACK 24 AUDIO
    INDEX 00 26:08:04
    INDEX 01 26:10:04
  TRACK 25 AUDIO
    INDEX 00 27:48:11
    INDEX 01 27:50:11
  TRACK 26 AUDIO
    INDEX 00 29:39:06
    INDEX 01 29:41:06
  TRACK 27 AUDIO
    INDEX 00 31:25:60
    INDEX 01 31:27:60
  TRACK 28 AUDIO
    INDEX 00 33:13:35
    INDEX 01 33:15:35
  TRACK 29 AUDIO
    INDEX 00 34:58:66
    INDEX 01 35:00:66
  TRACK 30 AUDIO
    INDEX 00 35:05:66
    INDEX 01 35:07:66
  TRACK 31 AUDIO
    INDEX 00 37:47:66
    INDEX 01 37:49:66
  TRACK 32 AUDIO
    INDEX 00 40:29:66
    INDEX 01 40:31:66
  TRACK 33 AUDIO
    INDEX 00 42:51:66
    INDEX 01 42:53:66
  TRACK 34 AUDIO
    INDEX 00 46:37:66
    INDEX 01 46:39:66
  TRACK 35 AUDIO
    INDEX 00 51:59:66
    INDEX 01 52:01:66
  TRACK 36 AUDIO
    INDEX 00 52:06:66
    INDEX 01 52:08:66
  TRACK 37 AUDIO
    INDEX 00 52:13:66
    INDEX 01 52:15:66
  TRACK 38 AUDIO
    INDEX 00 52:20:66
    INDEX 01 52:22:66
  TRACK 39 AUDIO
    INDEX 00 52:27:66
    INDEX 01 52:29:66
  TRACK 40 AUDIO
    INDEX 00 52:34:66
    INDEX 01 52:36:66
  TRACK 41 AUDIO
    INDEX 00 52:41:66
    INDEX 01 52:43:66
  TRACK 42 AUDIO
    INDEX 00 52:48:66
    INDEX 01 52:50:66
  TRACK 43 AUDIO
    INDEX 00 52:55:66
    INDEX 01 52:57:66
  TRACK 44 AUDIO
    INDEX 00 53:02:66
    INDEX 01 53:04:66
  TRACK 45 AUDIO
    INDEX 00 53:09:66
    INDEX 01 53:11:66
  TRACK 46 AUDIO
    INDEX 00 53:16:66
    INDEX 01 53:18:66
  TRACK 47 AUDIO
    INDEX 00 53:23:66
    INDEX 01 53:25:66
  TRACK 48 AUDIO
    INDEX 00 53:30:66
    INDEX 01 53:32:66
  TRACK 49 AUDIO
    INDEX 00 53:37:66
    INDEX 01 53:39:66
  TRACK 50 AUDIO
    INDEX 00 53:44:66
    INDEX 01 53:46:66
  TRACK 51 AUDIO
    INDEX 00 53:51:66
    INDEX 01 53:53:66
  TRACK 52 AUDIO
    INDEX 00 53:58:66
    INDEX 01 54:00:66
  TRACK 53 AUDIO
    INDEX 00 54:05:66
    INDEX 01 54:07:66
  TRACK 54 AUDIO
    INDEX 00 54:12:66
    INDEX 01 54:14:66
  TRACK 55 AUDIO
    INDEX 00 54:19:66
    INDEX 01 54:21:66
  TRACK 56 AUDIO
    INDEX 00 54:26:66
    INDEX 01 54:28:66
  TRACK 57 AUDIO
    INDEX 00 54:33:66
    INDEX 01 54:35:66
  TRACK 58 AUDIO
    INDEX 00 54:40:66
    INDEX 01 54:42:66
  TRACK 59 AUDIO
    INDEX 00 54:47:66
    INDEX 01 54:49:66
  TRACK 60 AUDIO
    INDEX 00 54:54:66
    INDEX 01 54:56:66
  TRACK 61 AUDIO
    INDEX 00 55:01:66
    INDEX 01 55:03:66
  TRACK 62 AUDIO
    INDEX 00 55:08:66
    INDEX 01 55:10:66
  TRACK 63 AUDIO
    INDEX 00 57:50:66
    INDEX 01 57:52:66
REM LEADOUT 63:12:66
